<?xml version="1.0" encoding="utf-8"?>
<!-- Generator: Adobe Illustrator 22.1.0, SVG Export Plug-In . SVG Version: 6.00 Build 0)  -->
<svg version="1.1" id="Layer_1" xmlns="http://www.w3.org/2000/svg" xmlns:xlink="http://www.w3.org/1999/xlink" x="0px" y="0px"
	 viewBox="0 0 1366 1366" style="enable-background:new 0 0 1366 1366;" xml:space="preserve">
<style type="text/css">
	.st0{fill:#25324E;}
</style>
<path class="st0" d="M297.8,570c0-218.9,177.5-396.5,396.5-396.5c219,0,396.5,177.5,396.5,396.5c0,219-177.5,396.4-396.4,396.4
	l0,158.6c306.5,0,555.1-248.5,555.1-555c0-306.6-248.5-555-555.1-555c-306.5,0-555,248.5-555,555c0,153.3,62.1,292,162.6,392.5l0,0
	L694.3,1355v-224.3L413.9,850.4C342.2,778.6,297.8,679.5,297.8,570z"/>
</svg>
