<?xml version="1.0" encoding="iso-8859-1"?>
<!-- Generator: Adobe Illustrator 19.0.0, SVG Export Plug-In . SVG Version: 6.00 Build 0)  -->
<svg version="1.1" id="Capa_1" xmlns="http://www.w3.org/2000/svg" xmlns:xlink="http://www.w3.org/1999/xlink" x="0px" y="0px"
	 viewBox="0 0 480 480" style="enable-background:new 0 0 480 480;" xml:space="preserve">
<g>
	<g>
		<path d="M478.782,259.758l-71.461-114.336c-1.781-2.823-4.317-5.09-7.32-6.547V88c0-48.601-39.399-88-88-88s-88,39.399-88,88v312
			c0,35.346-28.654,64-64,64c-35.346,0-64-28.654-64-64v-40l78.992-140.117c0.662-1.187,1.01-2.524,1.008-3.883V8
			c0.003-4.416-3.575-7.997-7.991-8c-0.003,0-0.006,0-0.009,0h-160c-4.416-0.003-7.997,3.575-8,7.991c0,0.003,0,0.006,0,0.009v208
			c-0.002,1.359,0.346,2.696,1.008,3.883L80.001,360v40c0,44.183,35.817,80,80,80s80-35.817,80-80V88c0-39.765,32.236-72,72-72
			c39.765,0,72,32.235,72,72v50.874c-3.003,1.457-5.539,3.725-7.32,6.547L305.22,259.758c-1.239,1.978-1.55,4.398-0.852,6.625
			l36.926,118.163c-3.163,1.116-5.282,4.101-5.293,7.455v80c-0.003,4.416,3.575,7.997,7.991,8c0.003,0,0.006,0,0.009,0h96
			c4.416,0.003,7.997-3.575,8-7.991c0-0.003,0-0.006,0-0.009v-80c-0.012-3.354-2.13-6.338-5.293-7.455l36.926-118.163
			C480.332,264.156,480.021,261.736,478.782,259.758z M136.001,16h24v192h-24V16z M96.001,16h24v192h-24V16z M56.001,16h24v192h-24
			V16z M16.001,16h24v192h-24V16z M21.595,224h132.811l-40.002,72H61.597L21.595,224z M70.487,312h35.027l-17.514,31.523L70.487,312
			z M392.001,256c4.417,0.003,7.997,3.583,8,8c0,4.418-3.582,8-8,8s-8-3.582-8-8S387.582,256,392.001,256z M432.001,464h-80v-64h80
			V464z M426.118,384h-68.234l-37.148-118.875l63.266-101.23v77.58c-12.497,4.418-19.046,18.131-14.627,30.627
			s18.131,19.046,30.627,14.627c12.497-4.418,19.046-18.131,14.627-30.627c-2.416-6.835-7.793-12.211-14.627-14.627v-77.58
			l63.266,101.23L426.118,384z"/>
	</g>
</g>
<g>
</g>
<g>
</g>
<g>
</g>
<g>
</g>
<g>
</g>
<g>
</g>
<g>
</g>
<g>
</g>
<g>
</g>
<g>
</g>
<g>
</g>
<g>
</g>
<g>
</g>
<g>
</g>
<g>
</g>
</svg>
