<?xml version="1.0" encoding="utf-8"?>
<!-- Generator: Adobe Illustrator 22.1.0, SVG Export Plug-In . SVG Version: 6.00 Build 0)  -->
<svg version="1.1" id="Layer_1" xmlns="http://www.w3.org/2000/svg" xmlns:xlink="http://www.w3.org/1999/xlink" x="0px" y="0px"
	 viewBox="0 0 1366 768" style="enable-background:new 0 0 1366 768;" xml:space="preserve">
<style type="text/css">
	.st0{fill:#25324E;}
</style>
<g>
	<g>
		<g>
			<path class="st0" d="M428.4,359.1v-1.1c0-23.3,16.7-36.7,37.4-36.7c17.1,0,33,7.5,34.3,28.8h-22.5c-1.1-6.6-4.3-10.2-11.3-10.2
				c-8.4,0-13.4,6-13.4,17.8v1.1c0,12.2,4.7,18.5,13.8,18.5c6.7,0,11.4-4,12.2-11.7h21.6c-0.7,17.7-12.6,29.2-35.2,29.2
				C444.3,394.9,428.4,382.7,428.4,359.1z"/>
			<path class="st0" d="M505.2,373.9c0-16.5,13.9-22.9,37.2-22.9h6.7v-1.6c0-6.7-1.6-11.1-9.2-11.1c-6.6,0-9,3.9-9.5,8.3h-22.5
				c1.1-16.9,14.3-25.2,33.5-25.2c19.3,0,31.6,7.9,31.6,26.5v45.4h-23.3v-8.2c-3.3,5.1-9.5,9.8-20.8,9.8
				C516.4,394.9,505.2,388.7,505.2,373.9z M549.2,368.8v-4.3h-6.3c-9.6,0-13.9,1.9-13.9,7.6c0,4,2.7,6.6,8.3,6.6
				C544.1,378.7,549.2,374.8,549.2,368.8z"/>
			<path class="st0" d="M580,371.1h22.1c0.8,5.1,3.1,7.9,9.9,7.9c5.9,0,8.6-2.3,8.6-5.8c0-3.3-3.3-5-13-6.3
				c-18.7-2.4-26.7-7.9-26.7-22.5c0-15.5,13.8-23,30-23c17.3,0,29.3,5.9,30.9,22.6h-21.7c-0.9-4.7-3.5-7-9-7c-5.2,0-7.9,2.3-7.9,5.5
				c0,3.3,3.2,4.7,11.8,5.8c19.4,2.4,28.8,7.5,28.8,22.5c0,16.6-12.3,24.1-31.7,24.1C592.2,394.9,580.5,386.6,580,371.1z"/>
			<path class="st0" d="M648.9,373.9c0-16.5,13.9-22.9,37.2-22.9h6.7v-1.6c0-6.7-1.6-11.1-9.2-11.1c-6.6,0-9,3.9-9.5,8.3h-22.5
				c1.1-16.9,14.3-25.2,33.5-25.2c19.3,0,31.6,7.9,31.6,26.5v45.4h-23.3v-8.2c-3.3,5.1-9.5,9.8-20.8,9.8
				C660,394.9,648.9,388.7,648.9,373.9z M692.8,368.8v-4.3h-6.3c-9.6,0-13.9,1.9-13.9,7.6c0,4,2.7,6.6,8.3,6.6
				C687.7,378.7,692.8,374.8,692.8,368.8z"/>
			<path class="st0" d="M741.1,359v-1.1c0-23.8,13.1-36.6,29.7-36.6c11,0,17.5,4.7,21.6,11.8v-40.7h24v100.9h-24v-11.4
				c-3.5,7.2-11.3,13-21.8,13C754.4,394.9,741.1,383.2,741.1,359z M793.1,358.6v-1.1c0-11.8-5-18.1-13.8-18.1c-9,0-13.8,6-13.8,18.2
				v1.1c0,11.8,5.2,17.8,13.5,17.8C787.8,376.5,793.1,370.5,793.1,358.6z"/>
			<path class="st0" d="M823.8,359.1v-1.1c0-22.5,16.7-36.7,37.9-36.7c19.1,0,35.6,11,35.6,36.2v6.3H848c0.7,9.2,6,14.6,14.6,14.6
				c7.9,0,11.2-3.6,12.2-8.3h22.5c-2.1,15.8-14.3,24.8-35.5,24.8C839.9,394.9,823.8,382,823.8,359.1z M874,350.3
				c-0.4-8.4-4.6-13.1-12.3-13.1c-7.2,0-12.2,4.7-13.4,13.1H874z"/>
			<path class="st0" d="M904.4,292.4h23.8v100.9h-23.8V292.4z"/>
			<path class="st0" d="M958.2,292.4H982v100.9h-23.8V292.4z"/>
			<path class="st0" d="M989.2,373.9c0-16.5,13.9-22.9,37.2-22.9h6.7v-1.6c0-6.7-1.6-11.1-9.2-11.1c-6.6,0-9,3.9-9.5,8.3h-22.5
				c1.1-16.9,14.3-25.2,33.5-25.2c19.3,0,31.6,7.9,31.6,26.5v45.4h-23.3v-8.2c-3.3,5.1-9.5,9.8-20.8,9.8
				C1000.3,394.9,989.2,388.7,989.2,373.9z M1033.2,368.8v-4.3h-6.3c-9.6,0-13.9,1.9-13.9,7.6c0,4,2.7,6.6,8.3,6.6
				C1028.1,378.7,1033.2,374.8,1033.2,368.8z"/>
			<path class="st0" d="M1059.7,323.2h25.6l14.6,45.1l14.3-45.1h22.9l-25.6,70.1h-26.1L1059.7,323.2z"/>
			<path class="st0" d="M1135.5,359.1v-1.1c0-22.5,16.7-36.7,38.4-36.7c21.6,0,38.2,13.8,38.2,36v1.1c0,22.8-16.7,36.4-38.3,36.4
				C1152.2,394.9,1135.5,381.8,1135.5,359.1z M1187.7,358.7v-1.1c0-11.8-4.7-18.3-13.8-18.3c-9,0-13.9,6.3-13.9,18.1v1.1
				c0,12.1,4.7,18.6,13.9,18.6C1182.9,377.1,1187.7,370.4,1187.7,358.7z"/>
			<path class="st0" d="M1219.3,323.2h24v13.9c4.4-10.4,11.8-15,22.6-14.9v22.4c-14.6-0.4-22.6,4.2-22.6,15.4v33.2h-24V323.2z"/>
			<path class="st0" d="M1268.4,359.1v-1.1c0-22.5,16.7-36.7,38.4-36.7c21.6,0,38.2,13.8,38.2,36v1.1c0,22.8-16.7,36.4-38.3,36.4
				C1285.1,394.9,1268.4,381.8,1268.4,359.1z M1320.6,358.7v-1.1c0-11.8-4.7-18.3-13.8-18.3c-9,0-13.9,6.3-13.9,18.1v1.1
				c0,12.1,4.7,18.6,13.9,18.6C1315.8,377.1,1320.6,370.4,1320.6,358.7z"/>
		</g>
		<path class="st0" d="M74.2,369.4c0-76.6,62.1-138.7,138.7-138.7c76.6,0,138.7,62.1,138.7,138.7c0,76.6-62.1,138.7-138.7,138.7
			l0,55.5c107.2,0,194.2-86.9,194.2-194.2c0-107.2-86.9-194.2-194.2-194.2c-107.2,0-194.2,86.9-194.2,194.2
			c0,53.6,21.7,102.2,56.9,137.3l0,0L212.9,644v-78.5l-98.1-98.1C89.7,442.4,74.2,407.7,74.2,369.4z"/>
	</g>
</g>
<g>
	<path class="st0" d="M428.4,460.9v-0.5c0-9.9,6.2-16.9,15.1-16.9c5.4,0,8.7,2.6,10.6,5.7v-20.6h5.1v47.7H454v-5.6
		c-1.9,3.1-6.4,6.1-11.1,6.1C434.5,477,428.4,471,428.4,460.9z M454.2,460.5V460c0-8.3-4-12.2-10.3-12.2c-6.4,0-10.3,4.5-10.3,12.3
		v0.5c0,8.1,4.4,12,9.8,12C449.5,472.7,454.2,468.8,454.2,460.5z"/>
	<path class="st0" d="M467.1,434c0-1.9,1.5-3.4,3.4-3.4c1.8,0,3.4,1.5,3.4,3.4s-1.5,3.4-3.4,3.4C468.7,437.4,467.1,435.9,467.1,434z
		 M468.1,444.1h5.1v32.3h-5.1V444.1z"/>
	<path class="st0" d="M497.3,432.3h12.5c8.5,0,15.4,3.7,15.4,12.9v0.2c0,9.4-7,13-15.4,13h-7.2v18h-5.4V432.3z M510.2,454.2
		c6.3,0,9.7-3.1,9.7-8.8v-0.2c0-6.2-3.7-8.6-9.7-8.6h-7.5v17.6H510.2z"/>
	<path class="st0" d="M528.3,467.5c0-7.5,7.9-10,16.2-10h4.6v-2.3c0-5.1-2-7.3-6.9-7.3c-4.5,0-6.9,1.9-7.4,5.8h-5.1
		c0.7-7.3,6.5-10.1,12.8-10.1c6.2,0,11.8,2.5,11.8,11.5v21.3h-5.1v-4.1c-2.4,3-5.3,4.6-10.1,4.6C533.1,477,528.3,474.1,528.3,467.5z
		 M549.1,465.1v-4h-4.4c-6.5,0-11.2,1.6-11.2,6.4c0,3.3,1.6,5.4,6.1,5.4C545,472.9,549.1,470.1,549.1,465.1z"/>
	<path class="st0" d="M563.9,468.3v-19.9h-4.6v-4.3h4.6v-7.3h5.1v7.3h7.5v4.3H569v19.4c0,3.1,1.4,4.7,4,4.7c1.6,0,2.8-0.2,4-0.7v4.3
		c-1,0.4-2.3,0.7-4.4,0.7C566.7,476.9,563.9,473.4,563.9,468.3z"/>
	<path class="st0" d="M580.8,460.6v-0.5c0-9.9,7-16.6,15.7-16.6c6.7,0,13,3.1,14,11.3h-5.1c-0.8-5.1-4.5-7-9-7
		c-5.9,0-10.4,4.7-10.4,12.3v0.5c0,7.9,4.3,12.1,10.6,12.1c4.6,0,8.7-2.7,9.3-7.9h4.7c-0.7,7-6.3,12.2-14.1,12.2
		C587.5,477,580.8,470.6,580.8,460.6z"/>
	<path class="st0" d="M616.8,428.7h5.1v20.6c1.5-3,5.1-5.7,10.4-5.7c6.7,0,11.4,3.6,11.4,13v19.8h-5.1v-20.2c0-5.7-2.4-8.2-7.6-8.2
		c-4.7,0-9,3-9,8.8v19.6h-5.1V428.7z"/>
	<path class="st0" d="M649.5,467.5c0-7.5,7.9-10,16.2-10h4.6v-2.3c0-5.1-2-7.3-6.9-7.3c-4.5,0-6.9,1.9-7.4,5.8h-5.1
		c0.7-7.3,6.6-10.1,12.8-10.1c6.2,0,11.8,2.5,11.8,11.5v21.3h-5.1v-4.1c-2.4,3-5.3,4.6-10.1,4.6C654.3,477,649.5,474.1,649.5,467.5z
		 M670.3,465.1v-4h-4.4c-6.5,0-11.2,1.6-11.2,6.4c0,3.3,1.6,5.4,6.1,5.4C666.2,472.9,670.3,470.1,670.3,465.1z"/>
	<path class="st0" d="M684,444.1h5.1v5.1c1.5-3,5.1-5.7,10.4-5.7c6.7,0,11.4,3.6,11.4,13v19.8h-5.1v-20.2c0-5.7-2.4-8.2-7.6-8.2
		c-4.7,0-9,3-9,8.8v19.6H684V444.1z"/>
	<path class="st0" d="M719.4,428.7h5.1V459l13.4-14.9h6l-13.8,15l15,17.3h-6.2l-14.3-16.7v16.7h-5.1V428.7z"/>
	<path class="st0" d="M746.7,467.5c0-7.5,7.9-10,16.2-10h4.6v-2.3c0-5.1-2-7.3-6.9-7.3c-4.5,0-6.9,1.9-7.4,5.8h-5.1
		c0.7-7.3,6.5-10.1,12.8-10.1c6.2,0,11.8,2.5,11.8,11.5v21.3h-5.1v-4.1c-2.4,3-5.3,4.6-10.1,4.6C751.5,477,746.7,474.1,746.7,467.5z
		 M767.5,465.1v-4h-4.4c-6.5,0-11.2,1.6-11.2,6.4c0,3.3,1.6,5.4,6.1,5.4C763.4,472.9,767.5,470.1,767.5,465.1z"/>
	<path class="st0" d="M793.4,466.5h5c0.4,3.8,2.4,6.2,7.6,6.2c4.9,0,7-1.7,7-5.1c0-3.4-2.5-4.5-7.5-5.4c-8.4-1.5-11.2-3.9-11.2-9.5
		c0-6,5.9-9.1,10.9-9.1c5.8,0,10.8,2.3,11.7,9.3h-4.9c-0.7-3.5-2.7-5.1-6.8-5.1c-3.7,0-6.1,1.9-6.1,4.6c0,2.9,1.6,4.1,7.5,5.1
		c6.7,1.2,11.4,2.7,11.4,9.6c0,5.9-4,9.8-11.9,9.8C798.3,477,793.7,473.1,793.4,466.5z"/>
	<path class="st0" d="M823.7,472.8c0-2.2,1.8-4,4-4c2.2,0,4,1.7,4,4c0,2.2-1.8,4-4,4C825.5,476.7,823.7,475,823.7,472.8z"/>
	<path class="st0" d="M836,460.6v-0.5c0-9.9,7-16.6,15.7-16.6c6.7,0,13,3.1,14,11.3h-5.1c-0.8-5.1-4.5-7-9-7
		c-5.9,0-10.4,4.7-10.4,12.3v0.5c0,7.9,4.3,12.1,10.6,12.1c4.6,0,8.7-2.7,9.3-7.9h4.7c-0.7,7-6.3,12.2-14.1,12.2
		C842.8,477,836,470.6,836,460.6z"/>
	<path class="st0" d="M871,472.8c0-2.2,1.8-4,4-4s4,1.7,4,4c0,2.2-1.8,4-4,4S871,475,871,472.8z"/>
	<path class="st0" d="M884.4,466.5h5c0.4,3.8,2.4,6.2,7.6,6.2c4.9,0,7-1.7,7-5.1c0-3.4-2.5-4.5-7.5-5.4c-8.4-1.5-11.2-3.9-11.2-9.5
		c0-6,5.9-9.1,10.9-9.1c5.8,0,10.8,2.3,11.7,9.3h-4.9c-0.7-3.5-2.7-5.1-6.8-5.1c-3.7,0-6.1,1.9-6.1,4.6c0,2.9,1.6,4.1,7.5,5.1
		c6.7,1.2,11.4,2.7,11.4,9.6c0,5.9-4,9.8-11.9,9.8C889.3,477,884.7,473.1,884.4,466.5z"/>
	<path class="st0" d="M914.7,472.8c0-2.2,1.8-4,4-4c2.2,0,4,1.7,4,4c0,2.2-1.8,4-4,4C916.5,476.7,914.7,475,914.7,472.8z"/>
</g>
</svg>
